<svg width="93" height="40" viewBox="0 0 111 48" fill="none" xmlns="http://www.w3.org/2000/svg">
<path fill-rule="evenodd" clip-rule="evenodd" d="M10 0C4.47715 0 0 4.47715 0 10V38C0 43.5228 4.47715 48 10 48H101C106.523 48 111 43.5229 111 38V10C111 4.47715 106.523 0 101 0H10ZM14.136 13.6V36H17.592V26.816C17.592 24.7467 17.5387 22.9653 17.432 21.472C17.393 20.7795 17.3384 20.096 17.2681 19.4214L23.704 29.568H25.816L32.3831 19.4163C32.3018 20.1524 32.2355 20.8909 32.184 21.632C32.0987 23.168 32.056 24.896 32.056 26.816V36H35.512V13.6H32.312L24.8679 25.5453L17.528 13.6H14.136ZM51.8403 32.8V36H62.5283V32.8H58.9123V16.8H62.5283V13.6H51.8403V16.8H55.4563V32.8H51.8403ZM76.4655 13.6L85.4255 36H88.7855L97.8095 13.6H93.7775L88.8175 27.2C88.4975 28.032 88.2202 28.7787 87.9855 29.44C87.7722 30.1013 87.5802 30.7093 87.4095 31.264C87.3819 31.3536 87.3547 31.4426 87.3277 31.531C87.2137 31.1915 87.0917 30.8359 86.9615 30.464C86.8122 30.016 86.6308 29.5253 86.4175 28.992C86.2255 28.4587 86.0015 27.8613 85.7455 27.2L80.4015 13.6H76.4655Z" fill="#864AF9"/>
</svg>
